<svg aria-hidden="true" style="position: absolute; width: 0; height: 0; overflow: hidden;" version="1.1" xmlns="http://www.w3.org/2000/svg" xmlns:xlink="http://www.w3.org/1999/xlink">
<defs>
<symbol id="icon-1" viewBox="0 0 31 32">
<path d="M23.079 12.315c0.582 0.194 1.745 0.194 2.424 0 0.582-0.291 0.097-0.485-1.261-0.485s-1.842 0.194-1.164 0.485z"></path>
<path d="M15.515 13.576c0 0.485 0.679 0.679 1.455 0.388 0.776-0.388 1.455-0.776 1.455-0.97s-0.679-0.388-1.455-0.388c-0.776 0-1.455 0.388-1.455 0.97z"></path>
<path d="M20.364 22.982c0 0.485 0.485 1.455 0.97 2.23 0.679 1.164 1.164 1.164 2.133 0.194s0.97-1.455-0.194-2.133c-1.745-1.164-2.909-1.261-2.909-0.291z"></path>
<path d="M9.697 24.145c0 0.582 0.485 1.261 0.97 1.552 0.582 0.291 0.97-0.097 0.97-0.873 0-0.873-0.388-1.552-0.97-1.552-0.485 0-0.97 0.388-0.97 0.873z"></path>
</symbol>
<symbol id="icon-Button" viewBox="0 0 32 32">
<path stroke-linejoin="round" stroke-linecap="round" stroke-miterlimit="4" stroke-width="2.4" d="M25.333 5.333h-18.667c-1.473 0-2.667 1.194-2.667 2.667v18.667c0 1.473 1.194 2.667 2.667 2.667h18.667c1.473 0 2.667-1.194 2.667-2.667v-18.667c0-1.473-1.194-2.667-2.667-2.667z"></path>
<path stroke-linejoin="round" stroke-linecap="round" stroke-miterlimit="4" stroke-width="2.4" d="M21.333 2.667v5.333"></path>
<path stroke-linejoin="round" stroke-linecap="round" stroke-miterlimit="4" stroke-width="2.4" d="M10.667 2.667v5.333"></path>
<path stroke-linejoin="round" stroke-linecap="round" stroke-miterlimit="4" stroke-width="2.4" d="M4 13.333h24"></path>
</symbol>
<symbol id="icon-untitled" viewBox="0 0 31 32">
<path d="M5.333 9.018c-3.491 3.491-4.945 7.37-3.879 10.085 0.582 1.552 0.776 1.455 2.521-0.679 0.97-1.358 2.036-3.491 2.327-4.848s1.164-3.588 1.939-5.139c1.842-3.491 0.97-3.297-2.909 0.582z"></path>
<path d="M22.691 7.855c0.873 1.261 1.552 3.394 1.552 4.848s0.679 3.103 1.455 3.782c0.776 0.679 1.455 1.842 1.455 2.618 0 2.23 2.424 0.873 2.715-1.552 0.388-2.618-3.782-9.212-6.691-10.861-2.036-1.067-2.036-0.97-0.485 1.164z"></path>
<path d="M16.873 16.194c-0.873 3.297 0.582 5.527 3.782 5.915s4.364-2.812 2.23-6.109c-2.133-3.297-5.236-3.2-6.012 0.194z"></path>
<path d="M9.697 19.394c0 1.067 0.485 1.939 0.97 1.939 0.582 0 0.97-0.873 0.97-1.939s-0.388-1.939-0.97-1.939c-0.485 0-0.97 0.873-0.97 1.939z"></path>
<path d="M13.576 23.951c0 0.485 0.485 1.455 0.97 2.23 0.873 1.261 1.067 1.261 1.939 0 1.455-2.133 1.164-2.909-0.97-2.909-1.067 0-1.939 0.291-1.939 0.679z"></path>
</symbol>
<symbol id="icon-plus" viewBox="0 0 32 32">
<path stroke-linejoin="round" stroke-linecap="round" stroke-miterlimit="4" stroke-width="2.88" d="M16 6.667v18.667"></path>
<path stroke-linejoin="round" stroke-linecap="round" stroke-miterlimit="4" stroke-width="2.88" d="M6.667 16h18.667"></path>
</symbol>
<symbol id="icon-male" viewBox="0 0 32 32">
<path stroke-linejoin="round" stroke-linecap="round" stroke-miterlimit="4" stroke-width="2" d="M16 14.667c-3.682 0-6.667 2.985-6.667 6.667s2.985 6.667 6.667 6.667c3.682 0 6.667-2.985 6.667-6.667s-2.985-6.667-6.667-6.667zM16 14.667v-10.667M16 4l5.333 5.333M16 4l-5.333 5.333"></path>
</symbol>
<symbol id="icon-female" viewBox="0 0 32 32">
<path stroke-linejoin="round" stroke-linecap="round" stroke-miterlimit="4" stroke-width="2" d="M16 17.333c3.682 0 6.667-2.985 6.667-6.667s-2.985-6.667-6.667-6.667c-3.682 0-6.667 2.985-6.667 6.667s2.985 6.667 6.667 6.667zM16 17.333v10.667M12 24h8"></path>
</symbol>
<symbol id="icon-search" viewBox="0 0 32 32">
<path stroke-linejoin="round" stroke-linecap="round" stroke-miterlimit="4" stroke-width="3.5556" d="M14.667 25.333c5.891 0 10.667-4.776 10.667-10.667s-4.776-10.667-10.667-10.667c-5.891 0-10.667 4.776-10.667 10.667s4.776 10.667 10.667 10.667z"></path>
<path stroke-linejoin="round" stroke-linecap="round" stroke-miterlimit="4" stroke-width="3.5556" d="M28.001 28l-5.8-5.8"></path>
</symbol>
<symbol id="icon-logo-1" viewBox="0 0 106 32">
<path fill="white" d="M9.38 25.42c-1.503 0-2.758-0.35-3.766-1.050s-1.769-1.652-2.282-2.856c-0.504-1.204-0.756-2.562-0.756-4.074s0.252-2.87 0.756-4.074c0.504-1.204 1.246-2.156 2.226-2.856s2.189-1.050 3.626-1.050c1.447 0 2.707 0.345 3.78 1.036s1.904 1.638 2.492 2.842c0.597 1.195 0.896 2.562 0.896 4.102 0 1.512-0.294 2.87-0.882 4.074-0.579 1.204-1.391 2.156-2.436 2.856s-2.263 1.050-3.654 1.050zM1.932 31.72v-21.84h3.36v10.36h0.476v11.48h-3.836zM8.764 22.032c0.821 0 1.493-0.205 2.016-0.616s0.91-0.961 1.162-1.652c0.252-0.7 0.378-1.475 0.378-2.324 0-0.84-0.131-1.605-0.392-2.296-0.261-0.7-0.667-1.255-1.218-1.666-0.541-0.42-1.237-0.63-2.086-0.63-0.793 0-1.437 0.191-1.932 0.574-0.485 0.383-0.84 0.919-1.064 1.61s-0.336 1.493-0.336 2.408c0 0.915 0.112 1.717 0.336 2.408s0.588 1.227 1.092 1.61c0.513 0.383 1.195 0.574 2.044 0.574zM25.341 25.42c-1.549 0-2.917-0.331-4.102-0.994-1.176-0.672-2.1-1.591-2.772-2.758-0.663-1.176-0.994-2.52-0.994-4.032 0-1.652 0.327-3.089 0.98-4.312s1.554-2.17 2.702-2.842c1.148-0.681 2.469-1.022 3.962-1.022 1.587 0 2.935 0.373 4.046 1.12s1.932 1.797 2.464 3.15 0.719 2.945 0.56 4.774h-3.766v-1.4c0-1.54-0.247-2.646-0.742-3.318-0.485-0.681-1.283-1.022-2.394-1.022-1.297 0-2.254 0.397-2.87 1.19-0.607 0.784-0.91 1.946-0.91 3.486 0 1.409 0.303 2.501 0.91 3.276 0.616 0.765 1.517 1.148 2.702 1.148 0.747 0 1.386-0.163 1.918-0.49s0.938-0.798 1.218-1.414l3.808 1.092c-0.569 1.381-1.47 2.455-2.702 3.22-1.223 0.765-2.562 1.148-4.018 1.148zM20.329 18.504v-2.828h10.024v2.828h-10.024zM43.3 25c-1.045 0.196-2.072 0.28-3.080 0.252-0.999-0.019-1.895-0.191-2.688-0.518-0.784-0.336-1.381-0.873-1.792-1.61-0.373-0.691-0.569-1.391-0.588-2.1-0.019-0.719-0.028-1.531-0.028-2.436v-12.908h3.808v12.684c0 0.588 0.005 1.12 0.014 1.596 0.019 0.467 0.117 0.84 0.294 1.12 0.336 0.532 0.873 0.821 1.61 0.868s1.554 0.009 2.45-0.112v3.164zM32.548 12.82v-2.94h10.752v2.94h-10.752zM45.829 25v-20.58h3.808v20.58h-3.808z"></path>
<path fill="white" d="M63.493 10.434c-1.839-2.172-4.907-2.756-7.211-0.767s-2.629 5.314-0.819 7.666c1.159 1.506 4.128 4.3 6.113 6.114 0.66 0.603 0.989 0.904 1.384 1.025 0.34 0.104 0.728 0.104 1.067 0 0.395-0.121 0.725-0.422 1.384-1.025 1.985-1.814 4.954-4.608 6.113-6.114 1.81-2.352 1.525-5.698-0.819-7.666s-5.372-1.405-7.211 0.767z"></path>
<path fill="white" d="M81.048 25l-5.488-15.12h3.374l3.808 10.962 3.794-10.962h3.388l-5.488 15.12h-3.388zM97.644 25.42c-1.531 0-2.875-0.331-4.032-0.994s-2.063-1.582-2.716-2.758c-0.644-1.176-0.966-2.529-0.966-4.060 0-1.652 0.317-3.085 0.952-4.298 0.635-1.223 1.517-2.17 2.646-2.842s2.436-1.008 3.92-1.008c1.568 0 2.898 0.369 3.99 1.106 1.101 0.728 1.918 1.759 2.45 3.094s0.732 2.907 0.602 4.718h-3.346v-1.232c-0.010-1.643-0.299-2.842-0.868-3.598s-1.466-1.134-2.688-1.134c-1.381 0-2.408 0.429-3.080 1.288-0.672 0.849-1.008 2.095-1.008 3.738 0 1.531 0.336 2.716 1.008 3.556s1.652 1.26 2.94 1.26c0.831 0 1.545-0.182 2.142-0.546 0.606-0.373 1.073-0.91 1.4-1.61l3.332 1.008c-0.579 1.363-1.475 2.422-2.688 3.178-1.204 0.756-2.534 1.134-3.99 1.134zM92.436 18.378v-2.548h10.402v2.548h-10.402z"></path>
</symbol>
<symbol id="icon-logo-2" viewBox="0 0 106 32">
<path fill="#fff" style="fill: var(--color1, #fff)" d="M9.226 25.42c-1.475 0-2.711-0.35-3.71-1.050s-1.75-1.652-2.254-2.856c-0.504-1.213-0.756-2.571-0.756-4.074 0-1.521 0.252-2.884 0.756-4.088s1.241-2.151 2.212-2.842c0.98-0.7 2.189-1.050 3.626-1.050 1.428 0 2.665 0.35 3.71 1.050 1.055 0.691 1.871 1.638 2.45 2.842 0.579 1.195 0.868 2.557 0.868 4.088 0 1.512-0.285 2.87-0.854 4.074s-1.372 2.156-2.408 2.856c-1.036 0.7-2.249 1.050-3.64 1.050zM1.932 31.72v-21.84h2.982v10.612h0.42v11.228h-3.402zM8.708 22.396c0.877 0 1.601-0.219 2.17-0.658s0.989-1.031 1.26-1.778c0.28-0.756 0.42-1.596 0.42-2.52 0-0.915-0.14-1.745-0.42-2.492-0.28-0.756-0.714-1.353-1.302-1.792-0.588-0.448-1.335-0.672-2.24-0.672-0.859 0-1.559 0.21-2.1 0.63-0.541 0.411-0.943 0.989-1.204 1.736-0.252 0.737-0.378 1.601-0.378 2.59 0 0.98 0.126 1.843 0.378 2.59 0.261 0.747 0.667 1.33 1.218 1.75 0.56 0.411 1.293 0.616 2.198 0.616zM24.968 25.42c-1.531 0-2.875-0.331-4.032-0.994s-2.063-1.582-2.716-2.758c-0.644-1.176-0.966-2.529-0.966-4.060 0-1.652 0.317-3.085 0.952-4.298 0.635-1.223 1.517-2.17 2.646-2.842s2.436-1.008 3.92-1.008c1.568 0 2.898 0.369 3.99 1.106 1.101 0.728 1.918 1.759 2.45 3.094s0.733 2.907 0.602 4.718h-3.346v-1.232c-0.009-1.643-0.299-2.842-0.868-3.598s-1.465-1.134-2.688-1.134c-1.381 0-2.408 0.429-3.080 1.288-0.672 0.849-1.008 2.095-1.008 3.738 0 1.531 0.336 2.716 1.008 3.556s1.652 1.26 2.94 1.26c0.831 0 1.545-0.182 2.142-0.546 0.607-0.373 1.073-0.91 1.4-1.61l3.332 1.008c-0.579 1.363-1.475 2.422-2.688 3.178-1.204 0.756-2.534 1.134-3.99 1.134zM19.76 18.378v-2.548h10.402v2.548h-10.402zM42.68 25c-0.999 0.187-1.979 0.266-2.94 0.238-0.952-0.019-1.806-0.191-2.562-0.518-0.756-0.336-1.33-0.863-1.722-1.582-0.345-0.653-0.527-1.321-0.546-2.002s-0.028-1.451-0.028-2.31v-13.146h3.36v12.95c0 0.607 0.005 1.139 0.014 1.596 0.019 0.457 0.117 0.831 0.294 1.12 0.336 0.56 0.873 0.873 1.61 0.938s1.577 0.028 2.52-0.112v2.828zM32.138 12.526v-2.646h10.542v2.646h-10.542zM45.091 25v-20.58h3.374v20.58h-3.374z"></path>
<path fill="#f6b83d" style="fill: var(--color2, #f6b83d)" d="M62.493 10.434c-1.839-2.172-4.907-2.756-7.211-0.767s-2.629 5.314-0.819 7.666c1.159 1.506 4.128 4.3 6.113 6.114 0.66 0.603 0.989 0.904 1.384 1.025 0.34 0.104 0.728 0.104 1.067 0 0.395-0.121 0.725-0.422 1.384-1.025 1.985-1.814 4.954-4.608 6.113-6.114 1.81-2.352 1.525-5.698-0.819-7.666s-5.372-1.405-7.211 0.767z"></path>
<path fill="#fff" style="fill: var(--color1, #fff)" d="M80.048 25l-5.488-15.12h3.374l3.808 10.962 3.794-10.962h3.388l-5.488 15.12h-3.388zM96.644 25.42c-1.531 0-2.875-0.331-4.032-0.994s-2.063-1.582-2.716-2.758c-0.644-1.176-0.966-2.529-0.966-4.060 0-1.652 0.317-3.085 0.952-4.298 0.635-1.223 1.517-2.17 2.646-2.842s2.436-1.008 3.92-1.008c1.568 0 2.898 0.369 3.99 1.106 1.101 0.728 1.918 1.759 2.45 3.094s0.732 2.907 0.602 4.718h-3.346v-1.232c-0.010-1.643-0.299-2.842-0.868-3.598s-1.465-1.134-2.688-1.134c-1.381 0-2.408 0.429-3.080 1.288-0.672 0.849-1.008 2.095-1.008 3.738 0 1.531 0.336 2.716 1.008 3.556s1.652 1.26 2.94 1.26c0.831 0 1.545-0.182 2.142-0.546 0.607-0.373 1.073-0.91 1.4-1.61l3.332 1.008c-0.579 1.363-1.475 2.422-2.688 3.178-1.204 0.756-2.534 1.134-3.99 1.134zM91.436 18.378v-2.548h10.402v2.548h-10.402z"></path>
</symbol>
<symbol id="icon-logo" viewBox="0 0 105 32">
<path fill="#262626" style="fill: var(--color1, #262626)" d="M9.226 25.42c-1.475 0-2.711-0.35-3.71-1.050s-1.75-1.652-2.254-2.856c-0.504-1.213-0.756-2.571-0.756-4.074 0-1.521 0.252-2.884 0.756-4.088s1.241-2.151 2.212-2.842c0.98-0.7 2.189-1.050 3.626-1.050 1.428 0 2.665 0.35 3.71 1.050 1.055 0.691 1.871 1.638 2.45 2.842 0.579 1.195 0.868 2.557 0.868 4.088 0 1.512-0.285 2.87-0.854 4.074s-1.372 2.156-2.408 2.856c-1.036 0.7-2.249 1.050-3.64 1.050zM1.932 31.72v-21.84h2.982v10.612h0.42v11.228h-3.402zM8.708 22.396c0.877 0 1.601-0.219 2.17-0.658s0.989-1.031 1.26-1.778c0.28-0.756 0.42-1.596 0.42-2.52 0-0.915-0.14-1.745-0.42-2.492-0.28-0.756-0.714-1.353-1.302-1.792-0.588-0.448-1.335-0.672-2.24-0.672-0.859 0-1.559 0.21-2.1 0.63-0.541 0.411-0.943 0.989-1.204 1.736-0.252 0.737-0.378 1.601-0.378 2.59 0 0.98 0.126 1.843 0.378 2.59 0.261 0.747 0.667 1.33 1.218 1.75 0.56 0.411 1.293 0.616 2.198 0.616zM24.968 25.42c-1.531 0-2.875-0.331-4.032-0.994s-2.063-1.582-2.716-2.758c-0.644-1.176-0.966-2.529-0.966-4.060 0-1.652 0.317-3.085 0.952-4.298 0.635-1.223 1.517-2.17 2.646-2.842s2.436-1.008 3.92-1.008c1.568 0 2.898 0.369 3.99 1.106 1.101 0.728 1.918 1.759 2.45 3.094s0.733 2.907 0.602 4.718h-3.346v-1.232c-0.009-1.643-0.299-2.842-0.868-3.598s-1.465-1.134-2.688-1.134c-1.381 0-2.408 0.429-3.080 1.288-0.672 0.849-1.008 2.095-1.008 3.738 0 1.531 0.336 2.716 1.008 3.556s1.652 1.26 2.94 1.26c0.831 0 1.545-0.182 2.142-0.546 0.607-0.373 1.073-0.91 1.4-1.61l3.332 1.008c-0.579 1.363-1.475 2.422-2.688 3.178-1.204 0.756-2.534 1.134-3.99 1.134zM19.76 18.378v-2.548h10.402v2.548h-10.402zM42.68 25c-0.999 0.187-1.979 0.266-2.94 0.238-0.952-0.019-1.806-0.191-2.562-0.518-0.756-0.336-1.33-0.863-1.722-1.582-0.345-0.653-0.527-1.321-0.546-2.002s-0.028-1.451-0.028-2.31v-13.146h3.36v12.95c0 0.607 0.005 1.139 0.014 1.596 0.019 0.457 0.117 0.831 0.294 1.12 0.336 0.56 0.873 0.873 1.61 0.938s1.577 0.028 2.52-0.112v2.828zM32.138 12.526v-2.646h10.542v2.646h-10.542zM45.091 25v-20.58h3.374v20.58h-3.374z"></path>
<path fill="#f6b83d" style="fill: var(--color2, #f6b83d)" d="M62.493 10.434c-1.839-2.172-4.907-2.756-7.211-0.767s-2.629 5.314-0.819 7.666c1.159 1.506 4.128 4.3 6.113 6.114 0.66 0.603 0.989 0.904 1.384 1.025 0.34 0.104 0.728 0.104 1.067 0 0.395-0.121 0.725-0.422 1.384-1.025 1.985-1.814 4.954-4.608 6.113-6.114 1.81-2.352 1.525-5.698-0.819-7.666s-5.372-1.405-7.211 0.767z"></path>
<path fill="#262626" style="fill: var(--color1, #262626)" d="M80.048 25l-5.488-15.12h3.374l3.808 10.962 3.794-10.962h3.388l-5.488 15.12h-3.388zM96.644 25.42c-1.531 0-2.875-0.331-4.032-0.994s-2.063-1.582-2.716-2.758c-0.644-1.176-0.966-2.529-0.966-4.060 0-1.652 0.317-3.085 0.952-4.298 0.635-1.223 1.517-2.17 2.646-2.842s2.436-1.008 3.92-1.008c1.568 0 2.898 0.369 3.99 1.106 1.101 0.728 1.918 1.759 2.45 3.094s0.732 2.907 0.602 4.718h-3.346v-1.232c-0.010-1.643-0.299-2.842-0.868-3.598s-1.465-1.134-2.688-1.134c-1.381 0-2.408 0.429-3.080 1.288-0.672 0.849-1.008 2.095-1.008 3.738 0 1.531 0.336 2.716 1.008 3.556s1.652 1.26 2.94 1.26c0.831 0 1.545-0.182 2.142-0.546 0.607-0.373 1.073-0.91 1.4-1.61l3.332 1.008c-0.579 1.363-1.475 2.422-2.688 3.178-1.204 0.756-2.534 1.134-3.99 1.134zM91.436 18.378v-2.548h10.402v2.548h-10.402z"></path>
</symbol>
<symbol id="icon-icons8_cat-footprint" viewBox="0 0 32 32">
<path fill="#f6b83d" style="fill: var(--color1, #f6b83d)" d="M12.5 5c-1.070 0-2.002 0.608-2.594 1.438s-0.906 1.902-0.906 3.062c0 1.16 0.314 2.233 0.906 3.063s1.524 1.437 2.594 1.437c1.070 0 2.002-0.608 2.594-1.438s0.906-1.902 0.906-3.062c0-1.16-0.314-2.233-0.906-3.063s-1.524-1.437-2.594-1.437zM16 9.5c0 1.16 0.314 2.233 0.906 3.063s1.525 1.437 2.594 1.437c1.070 0 2.002-0.608 2.594-1.438s0.906-1.902 0.906-3.062c0-1.16-0.314-2.233-0.906-3.063s-1.524-1.437-2.594-1.437c-1.070 0-2.002 0.608-2.594 1.438s-0.906 1.902-0.906 3.062zM12.5 7c0.312 0 0.656 0.156 0.97 0.594 0.31 0.437 0.53 1.133 0.53 1.906s-0.22 1.47-0.53 1.906c-0.314 0.438-0.658 0.594-0.97 0.594s-0.656-0.156-0.97-0.594c-0.31-0.437-0.53-1.133-0.53-1.906s0.22-1.47 0.53-1.906c0.314-0.438 0.658-0.594 0.97-0.594zM19.5 7c0.312 0 0.656 0.156 0.97 0.594 0.31 0.437 0.53 1.133 0.53 1.906s-0.22 1.47-0.53 1.906c-0.314 0.438-0.658 0.594-0.97 0.594s-0.656-0.156-0.97-0.594c-0.31-0.437-0.53-1.133-0.53-1.906s0.22-1.47 0.53-1.906c0.314-0.438 0.658-0.594 0.97-0.594zM7.5 12c-1.070 0-2.002 0.608-2.594 1.438s-0.906 1.902-0.906 3.062c0 1.16 0.314 2.233 0.906 3.063s1.524 1.437 2.594 1.437c1.070 0 2.002-0.608 2.594-1.438s0.906-1.902 0.906-3.062c0-1.16-0.314-2.233-0.906-3.063s-1.524-1.437-2.594-1.437zM24.5 12c-1.070 0-2.002 0.608-2.594 1.438s-0.906 1.902-0.906 3.062c0 1.16 0.314 2.233 0.906 3.063s1.524 1.437 2.594 1.437c1.070 0 2.002-0.608 2.594-1.438s0.906-1.902 0.906-3.062c0-1.16-0.314-2.233-0.906-3.063s-1.524-1.437-2.594-1.437zM7.5 14c0.312 0 0.656 0.156 0.97 0.594 0.31 0.437 0.53 1.133 0.53 1.906s-0.22 1.47-0.53 1.906c-0.314 0.438-0.658 0.594-0.97 0.594s-0.656-0.156-0.97-0.594c-0.31-0.436-0.53-1.133-0.53-1.906s0.22-1.47 0.53-1.906c0.314-0.438 0.658-0.594 0.97-0.594zM24.5 14c0.312 0 0.656 0.156 0.97 0.594 0.31 0.437 0.53 1.133 0.53 1.906s-0.22 1.47-0.53 1.906c-0.314 0.438-0.658 0.594-0.97 0.594s-0.656-0.156-0.97-0.594c-0.31-0.437-0.53-1.133-0.53-1.906s0.22-1.47 0.53-1.906c0.314-0.438 0.658-0.594 0.97-0.594zM16 16c-1.333 0-2.263 0.865-2.72 1.625-0.454 0.76-0.734 1.392-1 1.656-0.153 0.157-1.118 0.52-2.124 1.033-0.503 0.257-1.010 0.6-1.437 1.125-0.43 0.525-0.72 1.25-0.72 2.063 0 1.92 1.58 3.5 3.5 3.5 0.866 0 1.77-0.28 2.655-0.53 0.889-0.256 1.846-0.472 1.846-0.472s0.957 0.216 1.844 0.47c0.886 0.25 1.79 0.53 2.656 0.53 1.92 0 3.5-1.58 3.5-3.5 0-0.794-0.293-1.52-0.72-2.030-0.425-0.513-0.937-0.83-1.436-1.095-1-0.53-1.983-0.95-2.125-1.094-0.24-0.237-0.51-0.89-0.97-1.654-0.459-0.767-1.409-1.627-2.749-1.627zM16 18c0.66 0 0.733 0.16 1.030 0.656 0.3 0.495 0.524 1.336 1.25 2.063 0.825 0.82 1.867 1 2.626 1.404 0.38 0.202 0.67 0.417 0.844 0.625 0.173 0.207 0.25 0.396 0.25 0.75 0 0.84-0.66 1.5-1.5 1.5-0.29 0-1.224-0.22-2.094-0.47-0.87-0.247-1.59-0.53-2.406-0.53s-1.536 0.283-2.406 0.53c-0.87 0.25-1.804 0.47-2.094 0.47-0.84 0-1.5-0.66-1.5-1.5 0-0.403 0.084-0.61 0.25-0.814 0.166-0.203 0.472-0.404 0.844-0.593 0.744-0.38 1.78-0.53 2.625-1.375 0.733-0.737 0.953-1.605 1.25-2.095 0.292-0.49 0.362-0.625 1.030-0.625l0.001 0.004z"></path>
</symbol>
<symbol id="icon-healthicons_sexual-reproductive-health" viewBox="0 0 32 32">
<path d="M11.694 10.327c-0.957-0.374-2.010-0.421-2.997-0.135s-1.851 0.89-2.459 1.718c-0.608 0.828-0.926 1.833-0.905 2.86s0.382 2.018 1.024 2.82 1.532 1.369 2.529 1.613c0.998 0.245 2.048 0.153 2.988-0.261s1.718-1.126 2.212-2.026c0.494-0.901 0.677-1.939 0.52-2.954-0.013-0.087-0.009-0.175 0.011-0.26s0.058-0.165 0.11-0.236c0.052-0.071 0.117-0.13 0.192-0.176s0.158-0.076 0.244-0.089 0.175-0.009 0.26 0.011c0.085 0.021 0.165 0.058 0.236 0.11s0.13 0.117 0.176 0.192c0.045 0.075 0.076 0.158 0.089 0.244 0.201 1.305-0.034 2.64-0.67 3.798s-1.635 2.073-2.844 2.605c-1.209 0.531-2.559 0.649-3.842 0.335s-2.426-1.044-3.252-2.074c-0.826-1.031-1.289-2.305-1.316-3.625s0.381-2.613 1.163-3.677 1.893-1.841 3.162-2.209c1.268-0.368 2.623-0.307 3.853 0.173 0.083 0.031 0.158 0.078 0.223 0.139s0.116 0.133 0.152 0.214c0.036 0.081 0.056 0.168 0.058 0.256s-0.013 0.176-0.045 0.258c-0.032 0.082-0.080 0.157-0.142 0.221s-0.135 0.114-0.216 0.149c-0.081 0.035-0.168 0.053-0.257 0.054s-0.176-0.015-0.258-0.048z"></path>
<path d="M9.331 26v-5.331c0-0.177 0.070-0.346 0.195-0.471s0.294-0.195 0.471-0.195c0.177 0 0.346 0.070 0.471 0.195s0.195 0.295 0.195 0.471v5.331c0 0.177-0.070 0.346-0.195 0.471s-0.294 0.195-0.471 0.195c-0.177 0-0.346-0.070-0.471-0.195s-0.195-0.294-0.195-0.471z"></path>
<path d="M7.332 22.668c0-0.177 0.070-0.346 0.195-0.471s0.294-0.195 0.471-0.195h3.998c0.177 0 0.346 0.070 0.471 0.195s0.195 0.295 0.195 0.471c0 0.177-0.070 0.346-0.195 0.471s-0.294 0.195-0.471 0.195h-3.998c-0.177 0-0.346-0.070-0.471-0.195s-0.195-0.294-0.195-0.471zM19.262 10.182c-0.739-0.209-1.517-0.232-2.267-0.067s-1.447 0.511-2.030 1.010-1.035 1.133-1.315 1.848c-0.28 0.715-0.379 1.487-0.288 2.249 0.011 0.087 0.004 0.176-0.019 0.26s-0.063 0.164-0.118 0.233c-0.054 0.069-0.121 0.127-0.198 0.17s-0.161 0.071-0.248 0.081c-0.087 0.010-0.176 0.003-0.26-0.021s-0.163-0.064-0.232-0.119-0.126-0.122-0.169-0.199c-0.043-0.077-0.070-0.161-0.080-0.249-0.156-1.311 0.126-2.638 0.801-3.773s1.706-2.016 2.933-2.505c1.227-0.489 2.58-0.56 3.851-0.201s2.388 1.127 3.178 2.185c0.79 1.059 1.208 2.348 1.19 3.669s-0.471 2.598-1.29 3.635-1.956 1.774-3.236 2.098c-1.28 0.324-2.632 0.216-3.845-0.307-0.080-0.035-0.153-0.085-0.214-0.147s-0.109-0.137-0.141-0.218c-0.065-0.164-0.063-0.348 0.007-0.51s0.201-0.29 0.366-0.356c0.164-0.065 0.348-0.063 0.51 0.007 0.586 0.253 1.218 0.382 1.857 0.381s1.27-0.134 1.855-0.389c0.585-0.255 1.112-0.628 1.547-1.095s0.77-1.018 0.983-1.62c0.214-0.602 0.301-1.241 0.258-1.878s-0.217-1.258-0.51-1.825-0.7-1.068-1.194-1.472c-0.495-0.404-1.067-0.701-1.681-0.875z"></path>
<path d="M21.855 11.477c-0.125-0.125-0.195-0.294-0.195-0.471s0.070-0.346 0.195-0.471l4.998-4.998c0.061-0.064 0.135-0.114 0.216-0.149s0.169-0.053 0.257-0.054c0.088-0.001 0.176 0.016 0.258 0.050s0.156 0.083 0.219 0.146c0.063 0.063 0.112 0.137 0.146 0.219s0.050 0.17 0.050 0.258c-0.001 0.088-0.019 0.176-0.054 0.257s-0.086 0.155-0.149 0.216l-4.998 4.998c-0.125 0.125-0.295 0.195-0.471 0.195s-0.346-0.070-0.471-0.195z"></path>
<path d="M27.273 10.007c-0.088-0.001-0.174-0.020-0.254-0.054s-0.153-0.085-0.214-0.147c-0.061-0.063-0.109-0.137-0.142-0.218s-0.049-0.168-0.047-0.256l0.033-2.648-2.648 0.033c-0.177 0.002-0.347-0.066-0.474-0.189s-0.199-0.292-0.201-0.469 0.066-0.347 0.189-0.474c0.123-0.127 0.292-0.199 0.469-0.201l4.016-0.051-0.051 4.016c-0.001 0.088-0.019 0.174-0.054 0.254s-0.085 0.153-0.147 0.214c-0.063 0.061-0.137 0.109-0.218 0.142s-0.168 0.049-0.256 0.047z"></path>
</symbol>
<symbol id="icon-Vector-2" viewBox="0 0 32 32">
<path d="M16 0c2.122 0 4.157 0.843 5.657 2.343s2.343 3.535 2.343 5.657-0.843 4.157-2.343 5.657c-1.5 1.5-3.535 2.343-5.657 2.343s-4.157-0.843-5.657-2.343c-1.5-1.5-2.343-3.535-2.343-5.657s0.843-4.157 2.343-5.657c1.5-1.5 3.535-2.343 5.657-2.343zM16 20c8.84 0 16 3.58 16 8v4h-32v-4c0-4.42 7.16-8 16-8z"></path>
</symbol>
<symbol id="icon-x" viewBox="0 0 32 32">
<path d="M24.707 8.707c0.391-0.391 0.391-1.024 0-1.414s-1.024-0.391-1.414 0l1.414 1.414zM7.293 23.293c-0.391 0.391-0.391 1.024 0 1.414s1.024 0.391 1.414 0l-1.414-1.414zM23.293 7.293l-16 16 1.414 1.414 16-16-1.414-1.414z"></path>
<path d="M8.707 7.293c-0.391-0.391-1.024-0.391-1.414 0s-0.391 1.024 0 1.414l1.414-1.414zM23.293 24.707c0.391 0.391 1.024 0.391 1.414 0s0.391-1.024 0-1.414l-1.414 1.414zM7.293 8.707l16 16 1.414-1.414-16-16-1.414 1.414z"></path>
</symbol>
<symbol id="icon-menu-hamburger" viewBox="0 0 47 32">
<path stroke-linejoin="round" stroke-linecap="round" stroke-miterlimit="4" stroke-width="4.3636" d="M1.961 29.153h42.964M1.961 15.615h42.964M1.961 2.077h42.964"></path>
</symbol>
<symbol id="icon-star-full" viewBox="0 0 32 32">
<path d="M32 12.408l-11.056-1.607-4.944-10.018-4.944 10.018-11.056 1.607 8 7.798-1.889 11.011 9.889-5.199 9.889 5.199-1.889-11.011 8-7.798z"></path>
</symbol>
<symbol id="icon-checkmark" viewBox="0 0 32 32">
<path d="M27 4l-15 15-7-7-5 5 12 12 20-20z"></path>
</symbol>
<symbol id="icon-chevron-down" viewBox="0 0 32 32">
<path stroke-linejoin="round" stroke-linecap="round" stroke-miterlimit="4" stroke-width="3.5556" d="M8 12l8 8 8-8"></path>
</symbol>
<symbol id="icon-edit-2" viewBox="0 0 32 32">
<path fill="none" stroke="#f6b83d" style="stroke: var(--color1, #f6b83d)" stroke-linejoin="round" stroke-linecap="round" stroke-miterlimit="4" stroke-width="2.6667" d="M22.667 4c0.35-0.35 0.766-0.628 1.223-0.817s0.948-0.287 1.443-0.287c0.495 0 0.986 0.098 1.443 0.287s0.873 0.467 1.223 0.817c0.35 0.35 0.628 0.766 0.817 1.224s0.287 0.948 0.287 1.443c0 0.495-0.098 0.986-0.287 1.443s-0.467 0.873-0.817 1.223l-18 18-7.333 2 2-7.333 18-18z"></path>
</symbol>
<symbol id="icon-Vector-2" viewBox="0 0 32 32">
<path d="M16 0c2.122 0 4.157 0.843 5.657 2.343s2.343 3.535 2.343 5.657-0.843 4.157-2.343 5.657c-1.5 1.5-3.535 2.343-5.657 2.343s-4.157-0.843-5.657-2.343c-1.5-1.5-2.343-3.535-2.343-5.657s0.843-4.157 2.343-5.657c1.5-1.5 3.535-2.343 5.657-2.343zM16 20c8.84 0 16 3.58 16 8v4h-32v-4c0-4.42 7.16-8 16-8z"></path>
</symbol>
<symbol id="icon-upload-cloud" viewBox="0 0 32 32">
<path fill="none" stroke="#f6b83d" style="stroke: var(--color1, #f6b83d)" stroke-linejoin="round" stroke-linecap="round" stroke-miterlimit="4" stroke-width="2.3111" d="M16 16v12"></path>
<path fill="none" stroke="#f6b83d" style="stroke: var(--color1, #f6b83d)" stroke-linejoin="round" stroke-linecap="round" stroke-miterlimit="4" stroke-width="2.3111" d="M27.187 24.52c1.3-0.709 2.328-1.831 2.92-3.188s0.715-2.874 0.35-4.309-1.198-2.708-2.367-3.618c-1.169-0.909-2.608-1.404-4.089-1.405h-1.68c-0.404-1.561-1.156-3.010-2.2-4.239s-2.353-2.204-3.829-2.854-3.079-0.956-4.691-0.897c-1.611 0.059-3.188 0.483-4.612 1.24s-2.658 1.826-3.609 3.128c-0.951 1.302-1.595 2.803-1.882 4.389s-0.212 3.217 0.222 4.77c0.433 1.553 1.213 2.988 2.281 4.196"></path>
<path fill="none" stroke="#f6b83d" style="stroke: var(--color1, #f6b83d)" stroke-linejoin="round" stroke-linecap="round" stroke-miterlimit="4" stroke-width="2.3111" d="M21.333 21.333l-5.333-5.333-5.333 5.333"></path>
</symbol>
<symbol id="icon-eye" viewBox="0 0 32 32">
<path stroke-linejoin="round" stroke-linecap="round" stroke-miterlimit="4" stroke-width="3.2" d="M1.333 16c0 0 5.333-10.667 14.667-10.667s14.667 10.667 14.667 10.667c0 0-5.333 10.667-14.667 10.667s-14.667-10.667-14.667-10.667z"></path>
<path stroke-linejoin="round" stroke-linecap="round" stroke-miterlimit="4" stroke-width="3.2" d="M16 20c2.209 0 4-1.791 4-4s-1.791-4-4-4c-2.209 0-4 1.791-4 4s1.791 4 4 4z"></path>
</symbol>
<symbol id="icon-eye-off" viewBox="0 0 32 32">
<path stroke-linejoin="round" stroke-linecap="round" stroke-miterlimit="4" stroke-width="3.2" d="M23.92 23.92c-2.279 1.737-5.055 2.7-7.92 2.747-9.333 0-14.667-10.667-14.667-10.667 1.659-3.091 3.959-5.791 6.747-7.92M13.2 5.653c0.918-0.215 1.857-0.322 2.8-0.32 9.333 0 14.667 10.667 14.667 10.667-0.809 1.514-1.775 2.94-2.88 4.253M18.827 18.827c-0.366 0.393-0.808 0.708-1.298 0.927s-1.020 0.336-1.557 0.346-1.071-0.089-1.569-0.291c-0.498-0.201-0.95-0.5-1.33-0.88s-0.679-0.832-0.88-1.33c-0.201-0.498-0.3-1.032-0.29-1.569s0.127-1.067 0.346-1.557 0.534-0.932 0.927-1.298"></path>
<path stroke-linejoin="round" stroke-linecap="round" stroke-miterlimit="4" stroke-width="3.2" d="M1.333 1.333l29.333 29.333"></path>
</symbol>
<symbol id="icon-Vector" viewBox="0 0 36 32">
<path d="M32.255 4.013v0zM26.041 1.438v0zM19.827 4.013v0zM18.133 5.706l-1.017 1.017c0.561 0.561 1.472 0.561 2.033 0l-1.017-1.017zM16.44 4.013v0zM4.012 16.441v0zM5.705 18.134v0zM18.133 30.562l-1.017 1.017c0.27 0.27 0.635 0.421 1.017 0.421s0.747-0.151 1.017-0.421l-1.017-1.017zM32.255 16.441v0zM33.272 2.996c-0.949-0.95-2.077-1.703-3.317-2.217l-1.101 2.656c0.892 0.369 1.702 0.911 2.384 1.594l2.034-2.033zM29.954 0.779c-1.241-0.514-2.571-0.779-3.914-0.779v2.875c0.965 0 1.921 0.19 2.813 0.56l1.101-2.656zM26.041 0c-1.343 0-2.673 0.265-3.914 0.779l1.101 2.656c0.892-0.369 1.848-0.56 2.813-0.56v-2.875zM22.127 0.779c-1.241 0.514-2.368 1.268-3.317 2.217l2.034 2.033c0.682-0.683 1.493-1.224 2.384-1.594l-1.101-2.656zM18.81 2.996l-1.693 1.693 2.033 2.033 1.693-1.693-2.033-2.033zM19.15 4.689l-1.693-1.693-2.033 2.033 1.693 1.693 2.033-2.033zM17.457 2.996c-1.918-1.918-4.519-2.995-7.231-2.995v2.875c1.949 0 3.819 0.774 5.198 2.153l2.033-2.033zM10.226 0.001c-2.712 0-5.313 1.077-7.231 2.995l2.033 2.033c1.378-1.378 3.248-2.153 5.198-2.153v-2.875zM2.995 2.996c-1.918 1.918-2.995 4.519-2.995 7.231h2.875c0-1.949 0.774-3.819 2.153-5.198l-2.033-2.033zM0 10.227c0 2.712 1.077 5.313 2.995 7.231l2.033-2.033c-1.378-1.378-2.153-3.248-2.153-5.198h-2.875zM2.995 17.457l1.693 1.693 2.033-2.033-1.693-1.693-2.033 2.033zM4.688 19.151l12.428 12.428 2.033-2.033-12.428-12.428-2.033 2.033zM19.15 31.579l12.428-12.428-2.033-2.033-12.428 12.428 2.033 2.033zM31.578 19.151l1.693-1.693-2.033-2.033-1.693 1.693 2.033 2.033zM33.271 17.458c0.95-0.949 1.703-2.077 2.217-3.317l-2.656-1.101c-0.37 0.892-0.911 1.702-1.594 2.384l2.033 2.034zM35.489 14.14c0.514-1.241 0.779-2.571 0.779-3.914h-2.875c0 0.965-0.19 1.921-0.56 2.813l2.656 1.101zM36.267 10.227c0-1.343-0.265-2.673-0.779-3.914l-2.656 1.101c0.37 0.892 0.56 1.848 0.56 2.813h2.875zM35.489 6.313c-0.514-1.241-1.268-2.368-2.217-3.317l-2.033 2.034c0.683 0.682 1.224 1.493 1.594 2.384l2.656-1.101z"></path>
</symbol>
<symbol id="icon-trash-01" viewBox="0 0 32 32">
<path d="M20.033 8c0 0.718 0.582 1.3 1.3 1.3s1.3-0.582 1.3-1.3h-2.6zM9.367 8c0 0.718 0.582 1.3 1.3 1.3s1.3-0.582 1.3-1.3h-2.6zM19.877 2.957v0zM21.043 4.123v0zM12.123 2.957v0zM10.957 4.123v0zM14.633 15.333c0-0.718-0.582-1.3-1.3-1.3s-1.3 0.582-1.3 1.3h2.6zM12.033 22c0 0.718 0.582 1.3 1.3 1.3s1.3-0.582 1.3-1.3h-2.6zM19.967 15.333c0-0.718-0.582-1.3-1.3-1.3s-1.3 0.582-1.3 1.3h2.6zM17.367 22c0 0.718 0.582 1.3 1.3 1.3s1.3-0.582 1.3-1.3h-2.6zM4 6.7c-0.718 0-1.3 0.582-1.3 1.3s0.582 1.3 1.3 1.3v-2.6zM28 9.3c0.718 0 1.3-0.582 1.3-1.3s-0.582-1.3-1.3-1.3v2.6zM26.633 8c0-0.718-0.582-1.3-1.3-1.3s-1.3 0.582-1.3 1.3h2.6zM7.967 8c0-0.718-0.582-1.3-1.3-1.3s-1.3 0.582-1.3 1.3h2.6zM8.851 28.897v0zM7.103 27.149v0zM24.897 27.149v0zM23.149 28.897v0zM14.933 3.967h2.133v-2.6h-2.133v2.6zM20.033 6.933v1.067h2.6v-1.067h-2.6zM11.967 8v-1.067h-2.6v1.067h2.6zM17.067 3.967c0.768 0 1.266 0.001 1.646 0.032 0.364 0.030 0.503 0.081 0.575 0.117l1.18-2.317c-0.499-0.254-1.018-0.349-1.544-0.392-0.51-0.042-1.132-0.041-1.857-0.041v2.6zM22.633 6.933c0-0.725 0.001-1.347-0.041-1.857-0.043-0.525-0.137-1.044-0.392-1.543l-2.317 1.18c0.036 0.071 0.087 0.211 0.117 0.575 0.031 0.379 0.032 0.877 0.032 1.646h2.6zM19.287 4.116c0.257 0.131 0.466 0.34 0.597 0.597l2.317-1.18c-0.38-0.746-0.987-1.353-1.733-1.734l-1.18 2.317zM14.933 1.367c-0.725 0-1.347-0.001-1.857 0.041-0.525 0.043-1.044 0.137-1.543 0.392l1.18 2.317c0.071-0.036 0.211-0.087 0.575-0.117 0.379-0.031 0.877-0.032 1.646-0.032v-2.6zM11.967 6.933c0-0.768 0.001-1.266 0.032-1.646 0.030-0.364 0.081-0.503 0.117-0.575l-2.317-1.18c-0.254 0.499-0.349 1.018-0.392 1.543-0.042 0.51-0.041 1.132-0.041 1.857h2.6zM11.533 1.799c-0.746 0.38-1.353 0.987-1.733 1.734l2.317 1.18c0.131-0.257 0.34-0.466 0.597-0.597l-1.18-2.317zM12.033 15.333v6.667h2.6v-6.667h-2.6zM17.367 15.333v6.667h2.6v-6.667h-2.6zM4 9.3h24v-2.6h-24v2.6zM24.033 8v14.933h2.6v-14.933h-2.6zM18.933 28.033h-5.867v2.6h5.867v-2.6zM7.967 22.933v-14.933h-2.6v14.933h2.6zM13.067 28.033c-1.142 0-1.92-0.001-2.521-0.050-0.587-0.048-0.89-0.135-1.104-0.244l-1.18 2.317c0.642 0.327 1.326 0.458 2.073 0.519 0.732 0.060 1.634 0.059 2.733 0.059v-2.6zM5.367 22.933c0 1.099-0.001 2.001 0.059 2.733 0.061 0.747 0.192 1.431 0.519 2.073l2.317-1.18c-0.109-0.214-0.196-0.518-0.244-1.104-0.049-0.602-0.050-1.38-0.050-2.521h-2.6zM9.441 27.739c-0.508-0.259-0.921-0.672-1.18-1.18l-2.317 1.18c0.508 0.997 1.319 1.808 2.316 2.316l1.18-2.317zM24.033 22.933c0 1.142-0.001 1.92-0.050 2.521-0.048 0.587-0.135 0.89-0.244 1.104l2.317 1.18c0.327-0.642 0.458-1.326 0.519-2.073 0.060-0.732 0.059-1.634 0.059-2.733h-2.6zM18.933 30.633c1.099 0 2.001 0.001 2.733-0.059 0.747-0.061 1.431-0.192 2.073-0.519l-1.18-2.317c-0.214 0.109-0.518 0.196-1.104 0.244-0.602 0.049-1.38 0.050-2.521 0.050v2.6zM23.739 26.559c-0.259 0.508-0.672 0.921-1.18 1.18l1.18 2.317c0.997-0.508 1.808-1.319 2.316-2.316l-2.317-1.18z"></path>
</symbol>
<symbol id="icon-menu-hamburger" viewBox="0 0 47 32">
<path stroke-linejoin="round" stroke-linecap="round" stroke-miterlimit="4" stroke-width="4.3636" d="M1.961 29.153h42.964M1.961 15.615h42.964M1.961 2.077h42.964"></path>
</symbol>
<symbol id="icon-star-full" viewBox="0 0 32 32">
<path d="M32 12.408l-11.056-1.607-4.944-10.018-4.944 10.018-11.056 1.607 8 7.798-1.889 11.011 9.889-5.199 9.889 5.199-1.889-11.011 8-7.798z"></path>
</symbol>
<symbol id="icon-checkmark" viewBox="0 0 32 32">
<path d="M27 4l-15 15-7-7-5 5 12 12 20-20z"></path>
</symbol>
</defs>
</svg>
